<mxfile host="app.diagrams.net" modified="2024-01-02T16:50:09.614Z" agent="Mozilla/5.0 (Windows NT 10.0; Win64; x64) AppleWebKit/537.36 (KHTML, like Gecko) Chrome/120.0.0.0 Safari/537.36" version="22.1.16" etag="AIBJY6pRxc96vhtxH-_r" type="github">
  <diagram name="Page-1" id="K7W8x0SmLZVVCarPFx6O">
    <mxGraphModel>
      <root>
        <mxCell id="0" />
        <mxCell id="1" parent="0" />
      </root>
    </mxGraphModel>
  </diagram>
</mxfile>
